<?xml version="1.0" standalone="no"?>
<!DOCTYPE svg PUBLIC "-//W3C//DTD SVG 20010904//EN"
 "http://www.w3.org/TR/2001/REC-SVG-20010904/DTD/svg10.dtd">
<svg version="1.0" xmlns="http://www.w3.org/2000/svg"
 width="300.000000pt" height="300.000000pt" viewBox="0 0 300.000000 300.000000"
 preserveAspectRatio="xMidYMid meet">
<metadata>
Created by potrace 1.11, written by Peter Selinger 2001-2013
</metadata>
<g transform="translate(0.000000,300.000000) scale(0.100000,-0.100000)"
fill="#000000" stroke="none">
<path d="M299 2414 c-10 -12 -14 -51 -14 -143 0 -115 2 -130 26 -176 35 -70
79 -147 94 -165 6 -8 26 -40 42 -70 27 -47 43 -84 88 -195 5 -11 8 -22 7 -25
-16 -60 -33 -85 -59 -90 -36 -8 -65 -1 -60 14 5 14 -30 86 -53 107 -95 91
-247 63 -301 -56 -85 -187 142 -349 298 -212 l34 30 52 -16 52 -16 1 -48 c1
-27 9 -64 19 -82 19 -38 73 -91 92 -91 18 0 29 -29 32 -81 1 -25 4 -55 6 -65
2 -10 4 -53 5 -94 1 -68 3 -77 26 -93 13 -10 37 -21 52 -23 15 -3 79 -18 142
-34 105 -26 210 -48 267 -55 13 -2 42 -6 65 -10 80 -12 93 -14 168 -20 339
-25 587 18 820 143 87 47 168 102 207 142 28 29 32 38 28 74 -2 23 -7 73 -10
111 -7 85 -14 151 -20 185 -3 14 -8 42 -11 64 -3 21 -7 47 -9 58 -3 11 5 33
17 48 23 32 31 94 18 141 -10 33 -12 29 64 88 37 30 39 30 69 15 37 -20 87
-13 132 17 41 28 54 50 61 97 11 78 -84 155 -167 137 -17 -4 -48 -24 -70 -44
-36 -35 -44 -55 -42 -109 1 -7 -23 -25 -53 -40 l-54 -26 -22 21 c-13 12 -34
26 -48 31 -19 8 -31 26 -49 78 -28 81 -131 336 -140 346 -3 3 -26 9 -51 13
-25 3 -60 9 -79 11 -32 5 -33 4 -28 -22 3 -20 -2 -34 -20 -52 -14 -14 -19 -22
-11 -19 8 3 21 1 29 -3 22 -14 -21 -64 -57 -68 -47 -5 -68 27 -67 99 1 57 1
59 -25 60 -15 0 -47 3 -72 5 -36 4 -77 -6 -197 -45 -190 -64 -297 -81 -473
-76 -74 2 -146 6 -160 9 -14 3 -41 9 -60 12 -53 10 -230 84 -377 158 -73 36
-134 66 -137 66 -2 0 -10 -7 -17 -16z m588 -749 c0 -8 -4 -12 -9 -9 -5 3 -6
10 -3 15 9 13 12 11 12 -6z m58 -33 c-3 -3 -11 0 -18 7 -9 10 -8 11 6 5 10 -3
15 -9 12 -12z m158 3 c4 -8 3 -16 -1 -19 -4 -3 -9 4 -9 15 -2 23 3 25 10 4z
m67 -15 c0 -5 -5 -10 -11 -10 -5 0 -7 5 -4 10 3 6 8 10 11 10 2 0 4 -4 4 -10z
m80 -5 c0 -2 -9 -3 -19 -2 -11 0 -18 5 -15 9 4 6 34 0 34 -7z m1015 -24 c3 -5
2 -12 -3 -15 -5 -3 -9 1 -9 9 0 17 3 19 12 6z m-1339 -13 c3 -4 -1 -5 -10 -4
-8 1 -18 5 -22 8 -3 4 1 5 10 4 8 -1 18 -5 22 -8z m160 0 c3 -4 -1 -5 -10 -4
-8 1 -18 5 -22 8 -3 4 1 5 10 4 8 -1 18 -5 22 -8z m205 -15 c13 -16 12 -17 -3
-4 -10 7 -18 15 -18 17 0 8 8 3 21 -13z m-301 -17 c0 -2 -7 -7 -16 -10 -8 -3
-12 -2 -9 4 6 10 25 14 25 6z m200 0 c0 -3 -4 -8 -10 -11 -5 -3 -10 -1 -10 4
0 6 5 11 10 11 6 0 10 -2 10 -4z m35 -6 c3 -5 1 -10 -4 -10 -6 0 -11 5 -11 10
0 6 2 10 4 10 3 0 8 -4 11 -10z m5 -40 c0 -5 -2 -10 -4 -10 -3 0 -8 5 -11 10
-3 6 -1 10 4 10 6 0 11 -4 11 -10z m40 0 c0 -5 -2 -10 -4 -10 -3 0 -8 5 -11
10 -3 6 -1 10 4 10 6 0 11 -4 11 -10z m675 0 c3 -5 1 -10 -4 -10 -6 0 -11 5
-11 10 0 6 2 10 4 10 3 0 8 -4 11 -10z m45 6 c0 -3 -4 -8 -10 -11 -5 -3 -10
-1 -10 4 0 6 5 11 10 11 6 0 10 -2 10 -4z m40 -6 c0 -5 -2 -10 -4 -10 -3 0 -8
5 -11 10 -3 6 -1 10 4 10 6 0 11 -4 11 -10z m40 0 c0 -5 -5 -10 -11 -10 -5 0
-7 5 -4 10 3 6 8 10 11 10 2 0 4 -4 4 -10z m-380 -44 c0 -2 -8 -10 -17 -17
-16 -13 -17 -12 -4 4 13 16 21 21 21 13z m274 -26 c-6 -6 -10 -3 -10 10 0 13
4 16 10 10 7 -7 7 -13 0 -20z m-334 -46 c0 -8 -19 -13 -24 -6 -3 5 1 9 9 9 8
0 15 -2 15 -3z"/>
</g>
</svg>
